<svg width="375" height="463" viewBox="0 0 375 463" fill="none" xmlns="http://www.w3.org/2000/svg">
<path d="M13.1066 44.186H1C0.447715 44.186 0 44.6338 0 45.186V481C0 481.552 0.44771 482 0.999995 482H374C374.552 482 375 481.552 375 481V48.1318C375 47.5795 374.552 47.1318 374 47.1318H367.183C366.631 47.1318 366.183 46.6841 366.183 46.1318V29.2791C366.183 28.7268 365.736 28.2791 365.183 28.2791H344.848C344.296 28.2791 343.848 28.7268 343.848 29.2791V58.5039C343.848 59.0562 343.4 59.5039 342.848 59.5039H336.031C335.479 59.5039 335.031 59.0562 335.031 58.5039V50.4884C335.031 49.9361 334.584 49.4884 334.031 49.4884H323.688C323.136 49.4884 322.688 49.0407 322.688 48.4884V37.5271C322.688 36.9748 322.24 36.5271 321.688 36.5271H308.406C307.854 36.5271 307.406 36.0794 307.406 35.5271V18.0853C307.406 17.533 306.958 17.0853 306.406 17.0853H293.124C292.572 17.0853 292.124 17.533 292.124 18.0853V31.9922C292.124 32.5445 291.676 32.9922 291.124 32.9922H281.368C280.816 32.9922 280.368 33.44 280.368 33.9922V52.0233C280.368 52.5755 279.921 53.0233 279.368 53.0233H266.674C266.122 53.0233 265.674 52.5755 265.674 52.0233V1C265.674 0.447715 265.226 0 264.674 0H249.629C249.076 0 248.629 0.447716 248.629 1V29.0465C248.629 29.5988 248.181 30.0465 247.629 30.0465H239.049C238.496 30.0465 238.049 30.4942 238.049 31.0465V42.0078C238.049 42.56 237.601 43.0078 237.049 43.0078H209.072C208.52 43.0078 208.072 42.56 208.072 42.0078V25.155C208.072 24.6028 207.624 24.155 207.072 24.155H192.027C191.474 24.155 191.027 24.6028 191.027 25.155V34.3488C191.027 34.9011 190.579 35.3488 190.027 35.3488H176.157C175.604 35.3488 175.157 34.9011 175.157 34.3488V19.8527C175.157 19.3004 174.709 18.8527 174.157 18.8527H160.287C159.735 18.8527 159.287 18.405 159.287 17.8527V11.6047C159.287 11.0524 158.839 10.6047 158.287 10.6047H140.89C140.338 10.6047 139.89 11.0524 139.89 11.6046V40.2403C139.89 40.7926 139.443 41.2403 138.89 41.2403H134.425C133.872 41.2403 133.425 40.7926 133.425 40.2403V23.3876C133.425 22.8353 132.977 22.3876 132.425 22.3876H120.906C120.354 22.3876 119.906 22.8353 119.906 23.3876V38.4729C119.906 39.0252 119.458 39.4729 118.906 39.4729H101.509C100.957 39.4729 100.509 39.9206 100.509 40.4729V52.0233C100.509 52.5755 100.062 53.0233 99.5094 53.0233H85.6395C85.0872 53.0233 84.6395 53.471 84.6395 54.0233V60.2713C84.6395 60.8236 84.1918 61.2713 83.6395 61.2713H75.0596C74.5073 61.2713 74.0596 60.8236 74.0596 60.2713V44.0078C74.0596 43.4555 73.6118 43.0078 73.0596 43.0078H49.1975C48.6452 43.0078 48.1975 43.4555 48.1975 44.0078V54.969C48.1975 55.5213 47.7498 55.969 47.1975 55.969H38.0298C37.4775 55.969 37.0298 55.5213 37.0298 54.969V35.1705C37.0298 34.6183 36.5821 34.1705 36.0298 34.1705H22.1599C21.6076 34.1705 21.1599 34.6183 21.1599 35.1705V52.0233C21.1599 52.5755 20.7122 53.0233 20.1599 53.0233H15.1066C14.5543 53.0233 14.1066 52.5755 14.1066 52.0233V45.186C14.1066 44.6338 13.6589 44.186 13.1066 44.186Z" fill="#2348AD"/>
</svg>
