<svg width="375" height="188" viewBox="0 0 375 188" fill="none" xmlns="http://www.w3.org/2000/svg">
<path d="M-59 50.1307V187C-59 187.552 -58.5523 188 -58 188H433C433.552 188 434 187.552 434 187V37.096C434 36.5437 433.552 36.096 433 36.096H421.853C421.301 36.096 420.853 35.6483 420.853 35.096V1C420.853 0.447715 420.406 0 419.853 0H411.336C410.784 0 410.336 0.447713 410.336 0.999998V46.1253C410.336 46.6776 409.888 47.1253 409.336 47.1253H402.791C402.238 47.1253 401.791 46.6776 401.791 46.1253V24.5627C401.791 24.0104 401.343 23.5627 400.791 23.5627H388.987C388.434 23.5627 387.987 24.0104 387.987 24.5627V46.1253C387.987 46.6776 387.539 47.1253 386.987 47.1253H374.525C373.973 47.1253 373.525 46.6776 373.525 46.1253V13.5333C373.525 12.981 373.078 12.5333 372.525 12.5333H363.351C362.798 12.5333 362.351 12.981 362.351 13.5333V45.1227C362.351 45.6749 361.903 46.1227 361.351 46.1227H347.575C347.022 46.1227 346.575 45.6749 346.575 45.1227V18.0453C346.575 17.493 346.127 17.0453 345.575 17.0453H333.771C333.218 17.0453 332.771 17.493 332.771 18.0453V40.1093C332.771 40.6616 332.323 41.1093 331.771 41.1093H325.883C325.33 41.1093 324.883 40.6616 324.883 40.1093V12.0293C324.883 11.477 324.435 11.0293 323.883 11.0293H316.68C316.128 11.0293 315.68 11.477 315.68 12.0293V30.0827C315.68 30.635 315.232 31.0827 314.68 31.0827H306.163C305.61 31.0827 305.163 30.635 305.163 30.0827V18.0453C305.163 17.493 304.715 17.0453 304.163 17.0453H295.645C295.093 17.0453 294.645 17.493 294.645 18.0453V34.0933C294.645 34.6456 294.198 35.0933 293.645 35.0933H285.128C284.576 35.0933 284.128 34.6456 284.128 34.0933V24.5627C284.128 24.0104 283.68 23.5627 283.128 23.5627H274.611C274.058 23.5627 273.611 24.0104 273.611 24.5627V41.112C273.611 41.6643 273.163 42.112 272.611 42.112H262.121C261.569 42.112 261.121 41.6643 261.121 41.112V16.04C261.121 15.4877 260.674 15.04 260.121 15.04H252.261C251.709 15.04 251.261 15.4877 251.261 16.04V37.1013C251.261 37.6536 250.814 38.1013 250.261 38.1013H244.373C243.821 38.1013 243.373 37.6536 243.373 37.1013V24.5627C243.373 24.0104 242.926 23.5627 242.373 23.5627H228.597C228.045 23.5627 227.597 24.0104 227.597 24.5627V37.1013C227.597 37.6536 227.15 38.1013 226.597 38.1013H207.563C207.01 38.1013 206.563 37.6536 206.563 37.1013V22.5573C206.563 22.005 206.115 21.5573 205.563 21.5573H191.787C191.234 21.5573 190.787 22.005 190.787 22.5573V28.0773C190.787 28.6296 190.339 29.0773 189.787 29.0773H177.325C176.773 29.0773 176.325 28.6296 176.325 28.0773V22.5573C176.325 22.005 175.878 21.5573 175.325 21.5573H163.521C162.969 21.5573 162.521 22.005 162.521 22.5573V34.0933C162.521 34.6456 162.074 35.0933 161.521 35.0933H148.403C147.85 35.0933 147.403 34.6456 147.403 34.0933V13.032C147.403 12.4797 146.955 12.032 146.403 12.032H134.599C134.046 12.032 133.599 12.4797 133.599 13.032V34.0933C133.599 34.6456 133.151 35.0933 132.599 35.0933H114.221C113.669 35.0933 113.221 34.6456 113.221 34.0933V24.5627C113.221 24.0104 112.774 23.5627 112.221 23.5627H108.305C107.753 23.5627 107.305 24.0104 107.305 24.5627V34.0933C107.305 34.6456 106.858 35.0933 106.305 35.0933H100.417C99.865 35.0933 99.4173 34.6456 99.4173 34.0933V30.0773C99.4173 29.525 98.9696 29.0773 98.4173 29.0773H93.844C93.2917 29.0773 92.844 29.525 92.844 30.0773V37.1013C92.844 37.6536 92.3963 38.1013 91.844 38.1013H83.3267C82.7744 38.1013 82.3267 37.6536 82.3267 37.1013V13.032C82.3267 12.4797 81.879 12.032 81.3267 12.032H71.4947C70.9424 12.032 70.4947 12.4797 70.4947 13.032V67.1813C70.4947 67.7336 70.047 68.1813 69.4947 68.1813H66.9773C66.425 68.1813 65.9773 67.7336 65.9773 67.1813V22.5573C65.9773 22.005 65.5296 21.5573 64.9773 21.5573H48.488C47.9357 21.5573 47.488 22.005 47.488 22.5573V67.1813C47.488 67.7336 47.0403 68.1813 46.488 68.1813H26.796C26.2437 68.1813 25.796 67.7336 25.796 67.1813V27.5707C25.796 27.0184 25.3483 26.5707 24.796 26.5707H13.6493C13.097 26.5707 12.6493 27.0184 12.6493 27.5707V57.1547C12.6493 57.707 12.2016 58.1547 11.6493 58.1547H2.47467C1.92238 58.1547 1.47467 57.707 1.47467 57.1547V50.1307C1.47467 49.5784 1.02695 49.1307 0.474667 49.1307H-11.3293C-11.8816 49.1307 -12.3293 49.5784 -12.3293 50.1307V63.1707C-12.3293 63.7229 -12.7771 64.1707 -13.3293 64.1707H-25.7907C-26.343 64.1707 -26.7907 63.7229 -26.7907 63.1707V42.6107C-26.7907 42.0584 -27.2384 41.6107 -27.7907 41.6107H-39.5947C-40.147 41.6107 -40.5947 42.0584 -40.5947 42.6107V61.1653C-40.5947 61.7176 -41.0424 62.1653 -41.5947 62.1653H-49.4547C-50.007 62.1653 -50.4547 61.7176 -50.4547 61.1653V50.1307C-50.4547 49.5784 -50.9024 49.1307 -51.4547 49.1307H-58C-58.5523 49.1307 -59 49.5784 -59 50.1307Z" fill="url(#paint0_linear_292_7056)"/>
<path d="M-59 50.1307V187C-59 187.552 -58.5523 188 -58 188H433C433.552 188 434 187.552 434 187V37.096C434 36.5437 433.552 36.096 433 36.096H421.853C421.301 36.096 420.853 35.6483 420.853 35.096V1C420.853 0.447715 420.406 0 419.853 0H411.336C410.784 0 410.336 0.447713 410.336 0.999998V46.1253C410.336 46.6776 409.888 47.1253 409.336 47.1253H402.791C402.238 47.1253 401.791 46.6776 401.791 46.1253V24.5627C401.791 24.0104 401.343 23.5627 400.791 23.5627H388.987C388.434 23.5627 387.987 24.0104 387.987 24.5627V46.1253C387.987 46.6776 387.539 47.1253 386.987 47.1253H374.525C373.973 47.1253 373.525 46.6776 373.525 46.1253V13.5333C373.525 12.981 373.078 12.5333 372.525 12.5333H363.351C362.798 12.5333 362.351 12.981 362.351 13.5333V45.1227C362.351 45.6749 361.903 46.1227 361.351 46.1227H347.575C347.022 46.1227 346.575 45.6749 346.575 45.1227V18.0453C346.575 17.493 346.127 17.0453 345.575 17.0453H333.771C333.218 17.0453 332.771 17.493 332.771 18.0453V40.1093C332.771 40.6616 332.323 41.1093 331.771 41.1093H325.883C325.33 41.1093 324.883 40.6616 324.883 40.1093V12.0293C324.883 11.477 324.435 11.0293 323.883 11.0293H316.68C316.128 11.0293 315.68 11.477 315.68 12.0293V30.0827C315.68 30.635 315.232 31.0827 314.68 31.0827H306.163C305.61 31.0827 305.163 30.635 305.163 30.0827V18.0453C305.163 17.493 304.715 17.0453 304.163 17.0453H295.645C295.093 17.0453 294.645 17.493 294.645 18.0453V34.0933C294.645 34.6456 294.198 35.0933 293.645 35.0933H285.128C284.576 35.0933 284.128 34.6456 284.128 34.0933V24.5627C284.128 24.0104 283.68 23.5627 283.128 23.5627H274.611C274.058 23.5627 273.611 24.0104 273.611 24.5627V41.112C273.611 41.6643 273.163 42.112 272.611 42.112H262.121C261.569 42.112 261.121 41.6643 261.121 41.112V16.04C261.121 15.4877 260.674 15.04 260.121 15.04H252.261C251.709 15.04 251.261 15.4877 251.261 16.04V37.1013C251.261 37.6536 250.814 38.1013 250.261 38.1013H244.373C243.821 38.1013 243.373 37.6536 243.373 37.1013V24.5627C243.373 24.0104 242.926 23.5627 242.373 23.5627H228.597C228.045 23.5627 227.597 24.0104 227.597 24.5627V37.1013C227.597 37.6536 227.15 38.1013 226.597 38.1013H207.563C207.01 38.1013 206.563 37.6536 206.563 37.1013V22.5573C206.563 22.005 206.115 21.5573 205.563 21.5573H191.787C191.234 21.5573 190.787 22.005 190.787 22.5573V28.0773C190.787 28.6296 190.339 29.0773 189.787 29.0773H177.325C176.773 29.0773 176.325 28.6296 176.325 28.0773V22.5573C176.325 22.005 175.878 21.5573 175.325 21.5573H163.521C162.969 21.5573 162.521 22.005 162.521 22.5573V34.0933C162.521 34.6456 162.074 35.0933 161.521 35.0933H148.403C147.85 35.0933 147.403 34.6456 147.403 34.0933V13.032C147.403 12.4797 146.955 12.032 146.403 12.032H134.599C134.046 12.032 133.599 12.4797 133.599 13.032V34.0933C133.599 34.6456 133.151 35.0933 132.599 35.0933H114.221C113.669 35.0933 113.221 34.6456 113.221 34.0933V24.5627C113.221 24.0104 112.774 23.5627 112.221 23.5627H108.305C107.753 23.5627 107.305 24.0104 107.305 24.5627V34.0933C107.305 34.6456 106.858 35.0933 106.305 35.0933H100.417C99.865 35.0933 99.4173 34.6456 99.4173 34.0933V30.0773C99.4173 29.525 98.9696 29.0773 98.4173 29.0773H93.844C93.2917 29.0773 92.844 29.525 92.844 30.0773V37.1013C92.844 37.6536 92.3963 38.1013 91.844 38.1013H83.3267C82.7744 38.1013 82.3267 37.6536 82.3267 37.1013V13.032C82.3267 12.4797 81.879 12.032 81.3267 12.032H71.4947C70.9424 12.032 70.4947 12.4797 70.4947 13.032V67.1813C70.4947 67.7336 70.047 68.1813 69.4947 68.1813H66.9773C66.425 68.1813 65.9773 67.7336 65.9773 67.1813V22.5573C65.9773 22.005 65.5296 21.5573 64.9773 21.5573H48.488C47.9357 21.5573 47.488 22.005 47.488 22.5573V67.1813C47.488 67.7336 47.0403 68.1813 46.488 68.1813H26.796C26.2437 68.1813 25.796 67.7336 25.796 67.1813V27.5707C25.796 27.0184 25.3483 26.5707 24.796 26.5707H13.6493C13.097 26.5707 12.6493 27.0184 12.6493 27.5707V57.1547C12.6493 57.707 12.2016 58.1547 11.6493 58.1547H2.47467C1.92238 58.1547 1.47467 57.707 1.47467 57.1547V50.1307C1.47467 49.5784 1.02695 49.1307 0.474667 49.1307H-11.3293C-11.8816 49.1307 -12.3293 49.5784 -12.3293 50.1307V63.1707C-12.3293 63.7229 -12.7771 64.1707 -13.3293 64.1707H-25.7907C-26.343 64.1707 -26.7907 63.7229 -26.7907 63.1707V42.6107C-26.7907 42.0584 -27.2384 41.6107 -27.7907 41.6107H-39.5947C-40.147 41.6107 -40.5947 42.0584 -40.5947 42.6107V61.1653C-40.5947 61.7176 -41.0424 62.1653 -41.5947 62.1653H-49.4547C-50.007 62.1653 -50.4547 61.7176 -50.4547 61.1653V50.1307C-50.4547 49.5784 -50.9024 49.1307 -51.4547 49.1307H-58C-58.5523 49.1307 -59 49.5784 -59 50.1307Z" fill="black" fill-opacity="0.12" style="mix-blend-mode:plus-darker"/>
<defs>
<linearGradient id="paint0_linear_292_7056" x1="187.5" y1="0" x2="187.5" y2="188" gradientUnits="userSpaceOnUse">
<stop offset="0.078125" stop-color="#4594FF"/>
<stop offset="0.9375" stop-color="#006FED"/>
</linearGradient>
</defs>
</svg>
