<svg width="151" height="259" viewBox="0 0 151 259" fill="none" xmlns="http://www.w3.org/2000/svg">
<path fill-rule="evenodd" clip-rule="evenodd" d="M39.9705 70.8855V44.3034H91.0442V16.6995L3.82751 28.8395C1.63329 29.1449 0 31.0172 0 33.2273V39.8727C0 42.3196 1.98837 44.3031 4.44124 44.3031H31.0883V70.8852H19.9854C17.5325 70.8852 15.5442 72.8687 15.5442 75.3156V110.758C15.5442 113.205 17.5325 115.189 19.9854 115.189H51.0734C53.5263 115.189 55.5146 113.205 55.5146 110.758V75.3159C55.5146 72.869 53.5263 70.8855 51.0734 70.8855H39.9705ZM97.7059 250.139H79.9412C78.715 250.139 77.7208 251.131 77.7208 252.354V256.785C77.7208 258.008 78.715 259 79.9412 259H137.677C138.903 259 139.897 258.008 139.897 256.785V252.354C139.897 251.131 138.903 250.139 137.677 250.139H119.912V4.4304C119.912 1.98351 117.923 0 115.47 0H102.147C99.6942 0 97.7059 1.98351 97.7059 4.4304V250.139ZM126.573 44.3034H146.559C149.012 44.3034 151 42.3199 151 39.873V33.2275C151 31.4994 149.993 29.9292 148.42 29.2049L126.573 19.1467V44.3034Z" fill="#2348AD"/>
</svg>
