<svg width="121" height="207" viewBox="0 0 121 207" fill="none" xmlns="http://www.w3.org/2000/svg">
<path fill-rule="evenodd" clip-rule="evenodd" d="M88.9707 56.6537V35.4085H48.0441V13.3467L117.933 23.0493C119.691 23.2934 121 24.7898 121 26.5561V31.8674C121 33.823 119.407 35.4083 117.441 35.4083H96.0882V56.6534H104.985C106.951 56.6534 108.544 58.2387 108.544 60.1943V88.5213C108.544 90.4769 106.951 92.0622 104.985 92.0622H80.0736C78.1081 92.0622 76.5148 90.4769 76.5148 88.5213V60.1946C76.5148 58.2389 78.1081 56.6537 80.0736 56.6537H88.9707ZM42.7059 199.918H56.9411C57.9238 199.918 58.7205 200.711 58.7205 201.689V205.229C58.7205 206.207 57.9238 207 56.9411 207H10.6764C9.69371 207 8.89705 206.207 8.89705 205.229V201.689C8.89705 200.711 9.69371 199.918 10.6764 199.918H24.9116V3.5409C24.9118 1.58528 26.5051 0 28.4707 0H39.147C41.1126 0 42.7059 1.58528 42.7059 3.5409V199.918ZM19.5736 35.4085H3.55887C1.59332 35.4085 0 33.8232 0 31.8676V26.5564C0 25.1752 0.807061 23.9203 2.0674 23.3414L19.5736 15.3026V35.4085Z" fill="#0819B8"/>
</svg>
