<svg width="80" height="80" viewBox="0 0 80 80" fill="none" xmlns="http://www.w3.org/2000/svg">
<path d="M58.5558 0H21.4442C9.60088 0 0 9.60136 0 21.4452V58.5548C0 70.3986 9.60088 80 21.4442 80H58.5558C70.3991 80 80 70.3986 80 58.5548V21.4452C80 9.60136 70.3991 0 58.5558 0Z" fill="#F4F8FB"/>
<path d="M32.1163 43.6439V33.2143H38.5826V44.4214C38.5826 51.0276 34.6638 56.354 27.1051 56.354C19.5464 56.354 15.6714 51.0236 15.6714 44.4214V33.2143H22.1377V43.6918C22.1377 47.1523 23.7762 50.1146 27.1011 50.1146C30.426 50.1146 32.1123 47.1523 32.1123 43.6479L32.1163 43.6439Z" fill="#2348AD"/>
<path d="M57.8501 43.6439V33.2143H64.3164V44.4214C64.3164 51.0276 60.3976 56.354 52.8389 56.354C45.2802 56.354 41.4052 51.0236 41.4052 44.4214V33.2143H47.8715V43.6918C47.8715 47.1523 49.51 50.1146 52.8349 50.1146C56.1598 50.1146 57.8461 47.1523 57.8461 43.6479L57.8501 43.6439Z" fill="#2348AD"/>
<path d="M44.6344 22.8525C42.4537 22.8525 40.6278 24.6785 40.6278 26.8593C40.6278 29.0401 42.4537 30.8661 44.6344 30.8661C46.8151 30.8661 48.5971 29.0919 48.5971 26.8593C48.5971 24.6267 46.823 22.8525 44.6344 22.8525Z" fill="#2348AD"/>
<path d="M35.3295 22.8525C33.1488 22.8525 31.323 24.6785 31.323 26.8593C31.323 29.0401 33.1488 30.8661 35.3295 30.8661C37.5102 30.8661 39.2923 29.0919 39.2923 26.8593C39.2923 24.6267 37.5182 22.8525 35.3295 22.8525Z" fill="#2348AD"/>
</svg>
