<svg width="209" height="42" viewBox="0 0 209 42" fill="none" xmlns="http://www.w3.org/2000/svg">
<path d="M0 41.0638V2.81152H14.7195C23.3587 2.81152 30.009 6.8461 30.009 14.9762C30.009 20.2033 26.9407 24.2422 22.0531 25.5479C24.499 26.9145 25.9179 29.5259 27.9069 33.5039L31.602 41.0638H22.6232L19.2153 34.2438C17.4527 30.7184 15.8031 28.8426 11.4857 28.8426H8.24757L8.19101 41.0638H0.00868652H0ZM8.29982 10.489L8.24324 21.4567H14.7238C18.6452 21.4567 21.4873 19.4112 21.4873 15.8292C21.4873 12.2473 18.5886 10.489 14.8369 10.489H8.29982Z" fill="#2348AD"/>
<path d="M33.4169 26.7405C33.4169 18.6148 39.3273 11.908 48.0232 11.908C56.719 11.908 62.1202 18.5017 62.1202 26.1748V28.5598H41.2031C41.7733 32.3115 44.6676 34.8141 48.7065 34.8141C51.7748 34.8141 54.334 33.3343 55.6397 30.7229L61.833 33.8478C59.387 38.9052 54.73 41.8038 48.7587 41.8038C40.0062 41.8038 33.4125 35.7237 33.4125 26.7405H33.4169ZM54.1077 24.0726C53.7682 21.174 51.3788 18.9586 47.9709 18.9586C44.5631 18.9586 42.1171 21.2305 41.5513 24.0726H54.112H54.1077Z" fill="#2348AD"/>
<path d="M66.6074 26.9665C66.6074 18.7842 73.2577 12.0773 81.7273 12.1339C87.1285 12.1905 92.1293 14.6365 94.6841 20.0899L88.0338 23.7284C86.7846 21.2824 84.5084 19.7504 81.7273 19.7504C77.6927 19.7504 74.6809 22.9885 74.6809 26.9665C74.6809 30.9445 77.6927 34.187 81.7273 34.187C84.5128 34.187 86.7846 32.6506 88.0338 30.209L94.6841 33.8475C92.1249 39.3053 87.1241 41.7469 81.7273 41.8035C73.2577 41.8601 66.6074 35.0966 66.6074 26.9665Z" fill="#2348AD"/>
<path d="M99.5151 41.0638V24.9211C99.5151 17.705 103.606 12.1907 111.963 12.1907C113.782 12.1907 115.771 12.5302 117.19 13.1569V20.9997C115.827 20.2032 114.178 19.8072 112.698 19.8072C109.517 19.8072 107.584 21.8528 107.584 25.2084V41.0638H99.5151Z" fill="#2348AD"/>
<path d="M141.911 25.944V12.9307H149.98V26.9102C149.98 35.1535 145.092 41.7994 135.657 41.7994C126.221 41.7994 121.39 35.1491 121.39 26.9102V12.9307H129.459V26.0049C129.459 30.3224 131.504 34.0175 135.652 34.0175C139.8 34.0175 141.902 30.3224 141.902 25.9484L141.911 25.944Z" fill="#668FFF"/>
<path d="M174.022 25.944V12.9307H182.091V26.9102C182.091 35.1535 177.204 41.7994 167.768 41.7994C158.332 41.7994 153.501 35.1491 153.501 26.9102V12.9307H161.57V26.0049C161.57 30.3224 163.616 34.0175 167.763 34.0175C171.911 34.0175 174.013 30.3224 174.013 25.9484L174.022 25.944Z" fill="#668FFF"/>
<path d="M157.531 0C154.807 0 152.53 2.27624 152.53 5.00078C152.53 7.72531 154.807 10.0016 157.531 10.0016C160.256 10.0016 162.475 7.7906 162.475 5.00078C162.475 2.21096 160.264 0 157.531 0Z" fill="#668FFF"/>
<path d="M145.919 0C143.195 0 140.919 2.27624 140.919 5.00078C140.919 7.72531 143.195 10.0016 145.919 10.0016C148.644 10.0016 150.863 7.7906 150.863 5.00078C150.863 2.21096 148.653 0 145.919 0Z" fill="#668FFF"/>
<path d="M190.926 29.9264V19.7508H185.756V12.9308H190.926V5.77124H198.995V12.9308H208.94V19.7508H198.995V29.6958C198.995 32.8207 200.871 34.64 203.827 34.64C205.476 34.64 207.578 34.1308 208.94 33.2777V40.4938C207.517 41.4034 205.076 41.8561 203.087 41.8561C194.961 41.8561 190.922 36.9684 190.922 29.9221L190.926 29.9264Z" fill="#2348AD"/>
</svg>
