<svg width="27" height="19" viewBox="0 0 27 19" fill="none" xmlns="http://www.w3.org/2000/svg">
<path d="M9.0447 11.6952V5.82851H12.6012V12.1325C12.6012 15.8484 10.4458 18.8446 6.28853 18.8446C2.13126 18.8446 0 15.8462 0 12.1325V5.82851H3.55649V11.7221C3.55649 13.6686 4.45767 15.3349 6.28634 15.3349C8.11501 15.3349 9.04251 13.6686 9.04251 11.6974L9.0447 11.6952Z" fill="#2348AD"/>
<path d="M23.1983 11.6952V5.82851H26.7548V12.1325C26.7548 15.8484 24.5994 18.8446 20.4421 18.8446C16.2848 18.8446 14.1536 15.8462 14.1536 12.1325V5.82851H17.7101V11.7221C17.7101 13.6686 18.6113 15.3349 20.4399 15.3349C22.2686 15.3349 23.1961 13.6686 23.1961 11.6974L23.1983 11.6952Z" fill="#2348AD"/>
<path d="M15.9296 0C14.7303 0 13.726 1.02711 13.726 2.25381C13.726 3.48051 14.7303 4.50762 15.9296 4.50762C17.129 4.50762 18.1091 3.50967 18.1091 2.25381C18.1091 0.997957 17.1334 0 15.9296 0Z" fill="#2348AD"/>
<path d="M10.812 0C9.6126 0 8.60836 1.02711 8.60836 2.25381C8.60836 3.48051 9.6126 4.50762 10.812 4.50762C12.0114 4.50762 12.9915 3.50967 12.9915 2.25381C12.9915 0.997957 12.0157 0 10.812 0Z" fill="#2348AD"/>
</svg>
