<svg xmlns="http://www.w3.org/2000/svg" width="845" height="203" viewBox="0 0 845 203" version="1.1"><path d="M 162 10.383 C 130.870 20.025, 91.813 33.021, 90.250 34.257 C 88.284 35.811, 88.783 38.687, 91.364 40.677 C 92.664 41.680, 99.976 45.407, 107.614 48.959 L 121.500 55.419 64.405 112.508 C 33.003 143.907, 6.512 170.815, 5.537 172.304 C 4.104 174.491, 4.001 175.297, 5.004 176.505 C 6.007 177.713, 9.049 177.986, 20.872 177.929 C 28.918 177.890, 38.999 177.539, 43.275 177.150 L 51.050 176.443 98.775 128.725 L 146.501 81.007 153.914 93.253 C 164.337 110.470, 166.528 112.487, 170.211 108.250 C 171.539 106.721, 185.418 44.270, 190.670 16.188 C 192.585 5.950, 192.090 3.648, 187.899 3.302 C 186.580 3.193, 174.925 6.379, 162 10.383 M 756.775 70.559 C 753.427 72.376, 752 74.899, 752 79 C 752 83.184, 753.457 85.668, 756.980 87.490 C 760.703 89.415, 765.297 89.415, 769.020 87.490 C 772.594 85.642, 774.007 83.169, 773.978 78.816 C 773.925 70.990, 764.403 66.420, 756.775 70.559 M 194 72.391 C 194 72.847, 217.873 169.648, 218.628 172.250 C 219.068 173.769, 220.480 174, 229.328 174 L 239.520 174 248.497 140.537 C 253.435 122.133, 257.748 107.395, 258.081 107.787 C 258.415 108.179, 262.160 121.100, 266.403 136.500 C 270.647 151.900, 274.803 166.637, 275.640 169.250 L 277.161 174 287.580 174 C 293.311 174, 298 173.758, 298 173.462 C 298 173.167, 303.625 150.746, 310.500 123.638 C 317.375 96.531, 323 73.807, 323 73.140 C 323 72.254, 320.385 72.005, 313.278 72.214 L 303.556 72.500 295.079 107.750 C 290.416 127.138, 286.346 143, 286.035 143 C 285.723 143, 281.914 128.713, 277.570 111.250 C 273.226 93.787, 269.275 78.037, 268.789 76.250 L 267.906 73 257.953 73 C 252.479 73, 248 73.262, 248 73.582 C 248 74.453, 232.074 135.975, 230.854 139.817 C 230.275 141.641, 229.626 142.959, 229.413 142.746 C 229.199 142.533, 225.849 128.215, 221.968 110.929 C 218.086 93.643, 214.464 77.813, 213.917 75.750 L 212.923 72 203.461 72 C 198.258 72, 194 72.176, 194 72.391 M 393 123.379 L 393 175 403 175 L 413 175 413 156 L 413 137 419.750 137.006 L 426.500 137.013 436.424 155.506 L 446.349 174 457.174 174 C 463.129 174, 468 173.811, 468 173.581 C 468 173.350, 463.212 164.291, 457.359 153.449 C 447.621 135.410, 446.874 133.650, 448.553 132.710 C 452.315 130.605, 459.234 123.461, 461.152 119.703 C 464.091 113.941, 465.181 105.593, 463.921 98.500 C 461.853 86.867, 454.503 78.538, 443.042 74.842 C 437.474 73.046, 433.263 72.659, 414.750 72.245 L 393 71.758 393 123.379 M 792 91 L 792 100 786.500 100 L 781 100 781 108.093 L 781 116.185 786.501 115.843 L 792.003 115.500 792.001 138.282 C 792 156.524, 792.307 161.798, 793.538 164.746 C 797.463 174.139, 804.285 176.911, 821.750 176.211 L 827 176 827 168.500 L 827 161 821.423 161 C 816.592 161, 815.455 160.609, 812.923 158.077 L 810 155.154 809.998 135.327 L 809.995 115.500 818.498 115.823 L 827 116.147 827 108.073 L 827 100 818.500 100 L 810 100 810 91 L 810 82 801 82 L 792 82 792 91 M 412 104.447 L 412 121.177 422.750 120.830 C 435.481 120.419, 439.605 118.827, 442.836 113.078 C 445.796 107.811, 445.758 100.420, 442.747 95.952 C 438.900 90.243, 435.243 88.818, 422.947 88.236 L 412 87.717 412 104.447 M 341.324 100.380 C 331.732 103.516, 322.660 112.164, 318.857 121.798 C 315.640 129.947, 315.630 146.028, 318.836 154.147 C 321.813 161.684, 327.508 167.926, 335.097 171.971 C 340.512 174.857, 342.549 175.360, 350.523 175.777 C 361.629 176.358, 367.675 174.682, 373.995 169.272 C 378.118 165.743, 382.970 157.370, 382.990 153.750 C 382.999 152.235, 381.973 152, 375.346 152 L 367.692 152 364.313 155.948 C 361.836 158.841, 359.807 160.123, 356.717 160.749 C 345.500 163.018, 336.930 157.054, 335.401 145.913 L 334.795 141.500 359.343 141.799 L 383.891 142.099 384.605 138.299 C 385.569 133.169, 383.535 121.989, 380.574 116.146 C 377.641 110.358, 371.361 104.494, 365.122 101.718 C 359.321 99.136, 347.213 98.456, 341.324 100.380 M 494.286 100.386 C 483.764 103.837, 477.357 109.729, 472.234 120.664 C 469.752 125.962, 469.500 127.560, 469.501 138 C 469.502 148.360, 469.765 150.062, 472.161 155.175 C 475.718 162.764, 481.987 169.355, 488.858 172.730 C 493.985 175.247, 495.504 175.500, 505.500 175.500 C 515.230 175.500, 517.059 175.214, 521.343 173.026 C 526.922 170.177, 531.466 165.386, 534.110 159.565 C 537.322 152.493, 537.071 152.190, 528 152.190 C 520.310 152.190, 519.920 152.303, 517.931 155.097 C 512.810 162.289, 500.662 163.597, 494.118 157.661 C 491.077 154.902, 488.050 148.368, 488.022 144.500 L 487.999 141.500 512.250 141.500 L 536.500 141.500 536.456 132 C 536.417 123.748, 536.052 121.757, 533.675 116.839 C 530.523 110.317, 524.707 104.643, 518.245 101.784 C 512.442 99.217, 500.053 98.494, 494.286 100.386 M 569.951 100.297 C 563.647 102.087, 558.859 105.250, 553.597 111.103 C 547.785 117.568, 544.853 125.266, 544.239 135.671 C 543.261 152.263, 550.086 165.170, 563.450 172 C 569.945 175.319, 570.820 175.500, 580.399 175.493 C 593.154 175.484, 598.727 173.267, 605.998 165.312 C 610.313 160.590, 614 152.991, 614 148.818 C 614 148.368, 609.987 148, 605.082 148 L 596.165 148 594.332 151.737 C 588.781 163.058, 572.996 162.652, 566.152 151.011 C 563.813 147.033, 563.500 145.437, 563.500 137.500 C 563.500 129.743, 563.845 127.891, 566 124.089 C 567.375 121.662, 569.686 118.800, 571.136 117.729 C 574.499 115.242, 582.044 114.361, 585.988 115.995 C 589.414 117.414, 595 123.327, 595 125.535 C 595 126.713, 596.762 127, 604 127 C 612.667 127, 613 126.917, 612.999 124.750 C 612.998 120.991, 607.492 110.593, 603.890 107.547 C 595.486 100.440, 580.627 97.266, 569.951 100.297 M 655.500 100.935 C 650.696 102.105, 646.524 104.639, 643.232 108.388 C 639.845 112.246, 639 111.652, 639 105.418 L 639 102 630 102 L 621 102 621 138 L 621 174 630.500 174 L 640 174 640 154.149 C 640 133.700, 640.534 130.042, 644.311 124.624 C 647.160 120.537, 653.922 117.794, 660.305 118.135 L 665.500 118.413 665.788 109.207 L 666.075 100 662.288 100.102 C 660.204 100.159, 657.150 100.533, 655.500 100.935 M 722.827 123.750 C 722.514 146.245, 722.375 147.727, 720.208 151.789 C 717.089 157.634, 712.941 159.992, 705.766 159.996 C 700.906 159.999, 699.571 159.580, 697.011 157.250 C 692.794 153.411, 692 147.883, 692 122.364 L 692 101 682.500 101 L 673 101 673 125.951 C 673 139.777, 673.473 153.109, 674.062 155.852 C 676.646 167.902, 685.335 174.937, 698.693 175.794 C 707.868 176.383, 713.468 174.438, 718.436 168.939 L 722 164.994 722 169.997 L 722 175 732 175 L 742 175 742 137.500 L 742 100 732.579 100 L 723.159 100 722.827 123.750 M 754 137.500 L 754 174 763.500 174 L 773 174 773 137.500 L 773 101 763.500 101 L 754 101 754 137.500 M 345.032 114.791 C 341.090 116.964, 338.727 119.859, 336.533 125.202 L 335.013 128.905 351.098 129.202 L 367.183 129.500 366.618 126.023 C 365.018 116.192, 353.428 110.161, 345.032 114.791 M 497.500 114.801 C 495.850 115.853, 493.730 117.582, 492.788 118.643 C 491.141 120.501, 488.001 127.104, 487.999 128.718 C 487.998 129.148, 495.241 129.366, 504.095 129.201 L 520.192 128.903 519.527 126.201 C 518.536 122.181, 515.839 117.962, 512.824 115.715 C 508.968 112.841, 501.293 112.383, 497.500 114.801" stroke="none" fill="#051c51" fill-rule="evenodd"/></svg>